<?xml version="1.0" standalone="no"?><!DOCTYPE svg PUBLIC "-//W3C//DTD SVG 1.1//EN" "http://www.w3.org/Graphics/SVG/1.1/DTD/svg11.dtd"><svg t="1754719721535" class="icon" viewBox="0 0 1024 1024" version="1.1" xmlns="http://www.w3.org/2000/svg" p-id="11087" xmlns:xlink="http://www.w3.org/1999/xlink" width="200" height="200"><path d="M515.84 124.16C430.08 38.4 301.653333 20.906667 198.4 71.253333L353.28 226.133333c16.64 16.64 16.64 43.52 0 60.16L285.44 354.133333c-16.64 17.066667-43.52 17.066667-60.16 0L70.4 199.253333C20.48 302.933333 37.973333 430.506667 123.733333 516.266667a277.632 277.632 0 0 0 293.973334 63.146666l339.626666 339.626667a111.488 111.488 0 0 0 158.293334 0 111.488 111.488 0 0 0 0-158.293333L577.706667 422.4c39.253333-99.84 18.773333-217.6-61.866667-298.24z" p-id="11088" fill="#ffffff"></path></svg>