<?xml version="1.0" standalone="no"?>
<!DOCTYPE svg PUBLIC "-//W3C//DTD SVG 1.1//EN" "http://www.w3.org/Graphics/SVG/1.1/DTD/svg11.dtd">
<svg t="1755050994438" class="icon" viewBox="0 0 1024 1024" version="1.1" xmlns="http://www.w3.org/2000/svg" p-id="13710" xmlns:xlink="http://www.w3.org/1999/xlink" width="200" height="200">
  <g transform="translate(1024, 0) scale(-1, 1)">
    <path d="M865.792 606.208c-21.504-63.488-65.536-122.88-124.416-165.888-29.696-20.992-62.464-39.424-98.304-50.688a408.576 408.576 0 0 0-54.784-13.824c-18.944-2.56-38.912-4.608-50.688-5.632-21.504-1.536-43.52-2.56-65.024-3.072V230.912c0-22.016-26.624-34.304-44.032-19.968l-305.152 256c-12.288 10.24-12.288 29.184 0 39.424l305.152 256c17.408 14.848 44.032 2.56 44.032-19.456v-136.704c21.504-0.512 43.52-1.536 65.024-3.072l32.256-3.072c8.704-1.024 17.92-1.536 27.136-1.536 18.432 0.512 37.376 2.048 56.832 6.656 38.4 9.728 78.848 28.672 113.152 60.416 36.352 31.232 64.512 74.24 86.528 128.512v0.512c0.512 2.048 2.048 3.584 4.608 4.096 4.096 1.536 8.192-0.512 9.728-4.608 19.968-56.32 20.48-124.416-2.048-187.904" fill="#ffffff" p-id="13711"></path>
  </g>
</svg>
