<?xml version="1.0" standalone="no"?><!DOCTYPE svg PUBLIC "-//W3C//DTD SVG 1.1//EN" "http://www.w3.org/Graphics/SVG/1.1/DTD/svg11.dtd"><svg t="1755042606272" class="icon" viewBox="0 0 1024 1024" version="1.1" xmlns="http://www.w3.org/2000/svg" p-id="15205" xmlns:xlink="http://www.w3.org/1999/xlink" width="200" height="200"><path d="M349.090909 372.363636V46.545455h349.090909v325.818181H349.090909zM823.319273 46.545455A131.002182 131.002182 0 0 1 954.181818 177.408v692.456727A131.002182 131.002182 0 0 1 823.319273 1000.727273H223.953455A131.025455 131.025455 0 0 1 93.090909 869.864727V177.408A131.025455 131.025455 0 0 1 223.953455 46.545455H279.272727v360.727272a34.909091 34.909091 0 0 0 34.909091 34.909091h418.909091a34.909091 34.909091 0 0 0 34.909091-34.909091V46.545455h55.319273zM593.454545 314.181818a46.545455 46.545455 0 1 0-0.023272-93.114182A46.545455 46.545455 0 0 0 593.454545 314.181818z" fill="#ffffff" p-id="15206"></path></svg>