<?xml version="1.0" standalone="no"?><!DOCTYPE svg PUBLIC "-//W3C//DTD SVG 1.1//EN" "http://www.w3.org/Graphics/SVG/1.1/DTD/svg11.dtd"><svg t="1753180172468" class="icon" viewBox="0 0 1024 1024" version="1.1" xmlns="http://www.w3.org/2000/svg" p-id="6794" xmlns:xlink="http://www.w3.org/1999/xlink" width="200" height="200"><path d="M759.104 593.664c9.152 8.896 11.232 19.2 6.272 30.816-5.088 11.904-13.728 17.792-26.24 17.792h-169.728l89.344 212.48a27.904 27.904 0 0 1 0 21.888 28.928 28.928 0 0 1-15.136 15.616l-78.656 33.504a27.488 27.488 0 0 1-21.792 0 28.928 28.928 0 0 1-15.52-15.2l-84.832-201.792-138.464 139.488a27.456 27.456 0 0 1-20 8.512 27.2 27.2 0 0 1-10.656-2.304c-11.84-5.12-17.696-13.824-17.696-26.4V156.704c0-12.48 5.856-21.312 17.696-26.4a27.2 27.2 0 0 1 30.656 6.208l454.752 457.152z" fill="#ffffff" p-id="6795"></path></svg>