<?xml version="1.0" standalone="no"?><!DOCTYPE svg PUBLIC "-//W3C//DTD SVG 1.1//EN" "http://www.w3.org/Graphics/SVG/1.1/DTD/svg11.dtd"><svg t="1752895714015" class="icon" viewBox="0 0 1024 1024" version="1.1" xmlns="http://www.w3.org/2000/svg" p-id="19983" xmlns:xlink="http://www.w3.org/1999/xlink" width="200" height="200"><path d="M945.577 483.372l-114.53-114.53c-9.916-9.916-23.453-22.552-42.383-14.424-18.93 8.128-19.847 27.976-19.847 27.976V448.2H576.25V256.1h59.527c9.915 0 23.452-2.704 30.664-13.521 13.521-24.355-2.705-39.68-2.705-39.68s-93.345-95.164-118.602-120.404C541.375 78.89 530.262 64 513.165 64c-18.044 0-29.763 14.423-29.763 14.423L368.826 193c-9.915 9.915-22.551 23.452-14.422 42.383 8.129 18.93 27.975 19.846 27.975 19.846H448.2v192.52H256.1v-59.526c0-9.916-2.704-23.453-13.521-30.665-24.355-13.521-39.68 2.705-39.68 2.705s-95.164 93.345-120.404 118.602c-3.605 3.76-18.495 14.873-18.495 32 0 18.044 14.423 29.763 14.423 29.763L193 655.174c9.915 9.915 23.452 22.551 42.383 14.422 18.93-8.129 19.846-27.975 19.846-27.975V575.8h192.52v192.1h-59.526c-9.916 0-23.453 2.704-30.665 13.521-13.521 24.355 2.705 39.68 2.705 39.68s93.345 95.148 118.602 120.404c3.76 3.59 14.873 18.495 32.016 18.495 18.044 0 29.763-14.423 29.763-14.423l114.529-114.53c9.916-9.916 22.552-23.453 14.423-42.383-8.129-18.93-27.975-19.847-27.975-19.847H575.8V576.25h192.1v59.527c0 9.915 2.704 23.452 13.521 30.664 24.355 13.521 39.68-2.705 39.68-2.705s95.148-93.345 120.404-118.602c3.59-3.76 18.495-14.873 18.495-32.016 0-18.028-14.423-29.747-14.423-29.747z" fill="#ffffff" p-id="19984"></path></svg>