<?xml version="1.0" standalone="no"?>
<!DOCTYPE svg PUBLIC "-//W3C//DTD SVG 1.1//EN" "http://www.w3.org/Graphics/SVG/1.1/DTD/svg11.dtd">
<svg t="1753790125347" class="icon" viewBox="0 0 1354 1024" version="1.1" xmlns="http://www.w3.org/2000/svg" p-id="6733" xmlns:xlink="http://www.w3.org/1999/xlink" width="264.453125" height="200">
  <g transform="scale(-1, 1) translate(-1354, 0)">
    <path d="M353.167501 443.063917c-54.520513 29.72446-54.520513 108.116949 0 137.687396l590.33086 433.391871c52.364334 28.492358 115.971599-9.394778 115.971598-68.843698V78.515745c0-59.44892-63.761277-97.336056-115.971598-68.843698L353.167501 443.063917zM143.864177 1.201346C87.187486 1.201346 41.137675 47.251157 41.137675 104.081861v817.191637c0 56.830704 45.895799 102.726502 102.726502 102.726502 56.830704 0 102.726502-45.895799 102.726503-102.726502V104.081861c0-56.830704-45.895799-102.880515-102.726503-102.880515z m0 0" fill="#ffffff" p-id="6734"></path>
  </g>
</svg>